<svg width="144" height="56" viewBox="0 0 144 56" fill="none" xmlns="http://www.w3.org/2000/svg">
<path d="M28.8408 33.741L29.4469 33.391C29.7764 34.52 30.7375 35.2218 32.212 35.2218C33.701 35.2218 34.5292 34.4823 34.5292 33.4036C34.5292 32.8974 34.3326 32.5205 33.9503 32.2477C33.5681 31.9749 32.9619 31.7146 32.1464 31.4562L31.4875 31.2479L30.9086 31.0272C30.6574 30.9231 30.4608 30.8315 30.3425 30.7544C30.0913 30.5982 29.6836 30.3128 29.5252 30.0526C29.3668 29.7797 29.223 29.4028 29.223 28.9487C29.223 28.2092 29.487 27.6241 30.013 27.1826C30.5537 26.7285 31.2108 26.5077 32.0154 26.5077C33.4516 26.5077 34.5055 27.2867 34.9788 28.4174L34.3854 28.7423C33.9503 27.6905 33.1603 27.17 32.0154 27.17C30.7503 27.17 29.9348 27.8969 29.9348 28.9236C29.9348 29.4172 30.1059 29.7815 30.4608 30.0274C30.8158 30.2751 31.3819 30.521 32.1865 30.7813C32.6998 30.95 33.0948 31.0936 33.3715 31.2103C33.6609 31.3269 33.9649 31.4831 34.2925 31.6913C34.9642 32.0933 35.2409 32.6515 35.2409 33.3928C35.2409 34.1467 34.9642 34.7569 34.4109 35.211C33.8575 35.6651 33.1203 35.8859 32.212 35.8859C30.5136 35.8841 29.2631 35.0531 28.8408 33.741Z" fill="#5D5A5B"/>
<path d="M41.1168 35.8829C39.7862 35.8829 38.6667 35.4288 37.7456 34.5188C36.8246 33.5963 36.3622 32.4924 36.3622 31.1947C36.3622 29.8953 36.8227 28.7914 37.7456 27.8832C38.6685 26.9606 39.788 26.5065 41.1168 26.5065C42.4475 26.5065 43.5669 26.9606 44.488 27.8832C45.4109 28.7914 45.8714 29.897 45.8714 31.1947C45.8714 32.4942 45.4109 33.5981 44.488 34.5188C43.5669 35.4288 42.4475 35.8829 41.1168 35.8829ZM41.1168 35.2206C42.2491 35.2206 43.2102 34.8311 43.9874 34.0522C44.7774 33.2606 45.1725 32.3111 45.1725 31.1947C45.1725 30.0783 44.7774 29.1306 43.9874 28.3499C43.2102 27.5583 42.2491 27.1688 41.1168 27.1688C39.9846 27.1688 39.0235 27.5583 38.2317 28.3499C37.4544 29.1288 37.0594 30.0765 37.0594 31.1947C37.0594 32.3111 37.4544 33.2588 38.2317 34.0522C39.0217 34.8311 39.9828 35.2206 41.1168 35.2206Z" fill="#5D5A5B"/>
<path d="M50.7699 26.6484C51.5999 26.6484 52.2843 26.9212 52.825 27.4543C53.3656 27.9874 53.6423 28.6622 53.6423 29.4681C53.6423 30.274 53.3656 30.9489 52.825 31.482C52.2843 32.015 51.5999 32.2735 50.7699 32.2735H48.3325V35.7412H47.6353V26.6502H50.7699V26.6484ZM50.7699 31.6238C51.4015 31.6238 51.9148 31.4156 52.3244 31.0135C52.734 30.6115 52.9433 30.0909 52.9433 29.4681C52.9433 28.8309 52.7321 28.3122 52.3244 27.9102C51.9167 27.5081 51.4033 27.2999 50.7699 27.2999H48.3325V31.6256H50.7699V31.6238Z" fill="#5D5A5B"/>
<path d="M61.1874 35.7394L58.9739 32.0115H56.0651V35.7394H55.3679V26.6484H59.0031C59.753 26.6484 60.3865 26.9086 60.9253 27.4399C61.4659 27.973 61.728 28.5958 61.728 29.3353C61.728 29.9456 61.5296 30.4912 61.1492 30.9722C60.7669 31.4532 60.2936 31.7638 59.7002 31.9199L61.992 35.7376H61.1874V35.7394ZM56.0651 27.2981V31.3635H59.0031C59.5692 31.3635 60.0443 31.1679 60.4393 30.7784C60.8343 30.3763 61.0327 29.8953 61.0327 29.3371C61.0327 28.7789 60.8343 28.2979 60.4393 27.8958C60.0443 27.4938 59.5692 27.2981 59.0031 27.2981H56.0651Z" fill="#5D5A5B"/>
<path d="M69.6427 35.7394L68.7471 33.4276H64.1236L63.228 35.7394H62.4908L66.0731 26.6484H66.8103L70.3799 35.7394H69.6427ZM64.3875 32.7797H68.4977L66.4426 27.4938L64.3875 32.7797Z" fill="#5D5A5B"/>
<path d="M77.7831 26.6484H78.4802V35.7394H77.8613L72.4223 27.9209V35.7394H71.7251V26.6484H72.3313L77.7849 34.4668V26.6484H77.7831Z" fill="#5D5A5B"/>
<path d="M85.0005 35.8829C83.6699 35.8829 82.5504 35.4288 81.6293 34.5188C80.7083 33.5963 80.2459 32.4924 80.2459 31.1947C80.2459 29.8953 80.7064 28.7914 81.6293 27.8832C82.5522 26.9606 83.6717 26.5065 85.0005 26.5065C86.3312 26.5065 87.4507 26.9606 88.3717 27.8832C89.2946 28.7914 89.7551 29.897 89.7551 31.1947C89.7551 32.4942 89.2946 33.5981 88.3717 34.5188C87.4488 35.4288 86.3293 35.8829 85.0005 35.8829ZM85.0005 35.2206C86.1328 35.2206 87.0939 34.8311 87.8711 34.0522C88.6611 33.2606 89.0561 32.3111 89.0561 31.1947C89.0561 30.0783 88.6611 29.1306 87.8711 28.3499C87.0939 27.5583 86.1328 27.1688 85.0005 27.1688C83.8683 27.1688 82.9072 27.5583 82.1154 28.3499C81.3381 29.1288 80.9431 30.0765 80.9431 31.1947C80.9431 32.3111 81.3381 33.2588 82.1154 34.0522C82.9054 34.8311 83.8665 35.2206 85.0005 35.2206Z" fill="#5D5A5B"/>
<path d="M92.3491 34.5314C91.4408 33.6214 90.993 32.505 90.993 31.193C90.993 29.8809 91.4408 28.7645 92.3491 27.8689C93.2574 26.9607 94.4042 26.5048 95.7876 26.5048C96.6304 26.5048 97.4077 26.6986 98.1049 27.1025C98.802 27.4919 99.3554 28.025 99.7377 28.6873L99.1188 29.0373C98.8166 28.4791 98.3542 28.025 97.7626 27.6876C97.1692 27.3376 96.5121 27.1689 95.7876 27.1689C94.5899 27.1689 93.6142 27.5584 92.8369 28.3373C92.0724 29.1037 91.6902 30.064 91.6902 31.1948C91.6902 32.3255 92.0724 33.2858 92.8369 34.0648C93.6142 34.8312 94.5881 35.2207 95.7876 35.2207C97.2238 35.2207 98.5272 34.4668 99.1461 33.3109L99.765 33.6609C99.015 35.0107 97.486 35.8812 95.7876 35.8812C94.4024 35.883 93.2574 35.4289 92.3491 34.5314Z" fill="#5D5A5B"/>
<path d="M107.481 35.7394L106.586 33.4276H101.962L101.067 35.7394H100.329L103.912 26.6484H104.649L108.218 35.7394H107.481ZM102.226 32.7797H106.336L104.281 27.4938L102.226 32.7797Z" fill="#5D5A5B"/>
<path d="M112.696 26.6484C113.526 26.6484 114.211 26.9212 114.751 27.4543C115.292 27.9874 115.569 28.6622 115.569 29.4681C115.569 30.274 115.292 30.9489 114.751 31.482C114.211 32.015 113.526 32.2735 112.696 32.2735H110.259V35.7412H109.562V26.6502H112.696V26.6484ZM112.696 31.6238C113.328 31.6238 113.843 31.4156 114.251 31.0135C114.659 30.6115 114.87 30.0909 114.87 29.4681C114.87 28.8309 114.659 28.3122 114.251 27.9102C113.843 27.5081 113.328 27.2999 112.696 27.2999H110.259V31.6256H112.696V31.6238Z" fill="#5D5A5B"/>
<path d="M117.293 29.0193H117.99V35.7393H117.293V29.0193Z" fill="#5D5A5B"/>
<path d="M125.946 26.6484V27.2981H123.048V35.7394H122.337V27.2981H119.439V26.6484H125.946Z" fill="#5D5A5B"/>
<path d="M132.94 35.7394L132.044 33.4276H127.421L126.525 35.7394H125.788L129.37 26.6484H130.107L133.677 35.7394H132.94ZM127.685 32.7797H131.795L129.74 27.4938L127.685 32.7797Z" fill="#5D5A5B"/>
<path d="M135.718 35.0897H140.065V35.7394H135.021V26.6484H135.718V35.0897Z" fill="#5D5A5B"/>
<path d="M13.1407 24.7458C8.46619 24.7458 4.67633 28.4827 4.67633 33.0919V49.7843C9.35085 49.7843 13.1407 46.0473 13.1407 41.4381V24.7458Z" fill="url(#paint0_linear)"/>
<path d="M118.485 24.2971C117.828 24.2971 117.294 24.823 117.294 25.4709V27.8204C117.952 27.8204 118.485 27.2945 118.485 26.6466V24.2971Z" fill="url(#paint1_linear)"/>
<path d="M14.4713 6.70734V41.5063C19.2223 41.5063 23.0722 37.7101 23.0722 33.0255V15.1881C23.0722 10.5053 19.2205 6.70734 14.4713 6.70734Z" fill="url(#paint2_linear)"/>
<path d="M14.4713 8.87909V41.5063C19.2223 41.5063 23.0722 37.7101 23.0722 33.0255V17.3599C23.0722 12.6752 19.2205 8.87909 14.4713 8.87909Z" fill="url(#paint3_linear)"/>
<path d="M14.4713 11.1496V41.5063C19.2223 41.5063 23.0722 37.7101 23.0722 33.0255V19.6304C23.0722 14.9475 19.2205 11.1496 14.4713 11.1496Z" fill="url(#paint4_linear)"/>
<defs>
<linearGradient id="paint0_linear" x1="8.90797" y1="49.7845" x2="8.90797" y2="24.7461" gradientUnits="userSpaceOnUse">
<stop stop-color="#88CDD6"/>
<stop offset="1" stop-color="#42A6DE"/>
</linearGradient>
<linearGradient id="paint1_linear" x1="117.889" y1="27.8211" x2="117.889" y2="24.2974" gradientUnits="userSpaceOnUse">
<stop stop-color="#88CDD6"/>
<stop offset="1" stop-color="#42A6DE"/>
</linearGradient>
<linearGradient id="paint2_linear" x1="18.7717" y1="41.5057" x2="18.7717" y2="6.70762" gradientUnits="userSpaceOnUse">
<stop stop-color="#88CDD6"/>
<stop offset="1" stop-color="#45A7DE"/>
</linearGradient>
<linearGradient id="paint3_linear" x1="18.7717" y1="41.5057" x2="18.7717" y2="8.87825" gradientUnits="userSpaceOnUse">
<stop stop-color="#88CDD6"/>
<stop offset="0.227" stop-color="#81C9D7"/>
<stop offset="0.5154" stop-color="#6CBCD8"/>
<stop offset="0.8357" stop-color="#46A8D9"/>
<stop offset="1" stop-color="#259BD7"/>
</linearGradient>
<linearGradient id="paint4_linear" x1="18.7717" y1="41.5057" x2="18.7717" y2="11.1499" gradientUnits="userSpaceOnUse">
<stop stop-color="#88CDD6"/>
<stop offset="0.2287" stop-color="#81C9D7"/>
<stop offset="0.5194" stop-color="#6CBDD8"/>
<stop offset="0.8422" stop-color="#45A9DA"/>
<stop offset="1" stop-color="#249DD9"/>
</linearGradient>
</defs>
</svg>
