<svg width="40" height="40" viewBox="0 0 40 40" fill="none" xmlns="http://www.w3.org/2000/svg">
<g clip-path="url(#clip0)">
<path d="M30.8331 15.8325H7.49923C6.12084 15.8325 4.99918 16.9542 4.99918 18.3326V19.9993C4.99918 25.946 8.28425 31.3395 13.571 34.0746C13.9794 34.2846 14.4827 34.1262 14.6944 33.7162C14.9044 33.3079 14.746 32.8046 14.336 32.5928C9.60592 30.1461 6.66586 25.321 6.66586 19.9992V18.3325C6.66586 17.8725 7.03922 17.4991 7.49923 17.4991H30.8331C31.2931 17.4991 31.6665 17.8725 31.6665 18.3325V19.9992C31.6665 25.3209 28.7264 30.1461 23.9947 32.5911C23.5847 32.8028 23.4263 33.3061 23.6363 33.7145C23.7847 34.0012 24.0763 34.1662 24.378 34.1662C24.508 34.1662 24.638 34.1362 24.7596 34.0728C30.0481 31.3394 33.3332 25.9476 33.3332 19.9991V18.3324C33.3332 16.9542 32.2114 15.8325 30.8331 15.8325Z" fill="#BABABA"/>
<path d="M38.2716 33.0131C38.1416 32.7014 37.8382 32.498 37.5016 32.498H0.8341C0.497452 32.498 0.194086 32.7014 0.0640825 33.0131C-0.0659205 33.3247 0.00572181 33.6831 0.244087 33.9214L2.11249 35.7915C3.21587 36.8932 4.67919 37.4999 6.23759 37.4999H32.0948C33.6532 37.4999 35.1183 36.8932 36.2233 35.7915L38.0917 33.9214C38.33 33.6831 38.4016 33.3247 38.2716 33.0131ZM35.0433 34.6131C34.2566 35.3998 33.2082 35.8331 32.0965 35.8331H6.23759C5.12592 35.8331 4.07754 35.3998 3.29088 34.6131L2.84423 34.1664H35.4899L35.0433 34.6131Z" fill="#BABABA"/>
<path d="M38.3883 19.7678C36.1433 18.3244 32.5565 19.8912 32.1548 20.0728C31.7364 20.2645 31.5498 20.7578 31.7414 21.1779C31.9331 21.5979 32.4248 21.7829 32.8465 21.5912C33.6498 21.2262 36.2265 20.3612 37.4866 21.1729C38.0549 21.5379 38.3332 22.2462 38.3332 23.3329C38.3332 26.6696 31.6031 28.6864 29.0047 29.183L28.4146 29.2997C27.963 29.388 27.6696 29.8263 27.758 30.2781C27.8363 30.6747 28.1846 30.9497 28.5746 30.9497C28.628 30.9497 28.6813 30.9447 28.7363 30.9331L29.3213 30.8181C29.758 30.7347 39.9999 28.7264 39.9999 23.3329C40 21.6562 39.4567 20.4578 38.3883 19.7678Z" fill="#BABABA"/>
<path d="M25.6547 8.85245C27.0097 7.15905 27.0097 4.50734 25.6547 2.81394C25.3663 2.45394 24.8447 2.39393 24.483 2.68394C24.123 2.97231 24.0646 3.4956 24.353 3.85561C25.2114 4.92728 25.2114 6.73904 24.3514 7.81406C22.9947 9.50746 22.9947 12.1592 24.3514 13.8526C24.5164 14.0592 24.758 14.1659 25.003 14.1659C25.1847 14.1659 25.3697 14.1059 25.523 13.9826C25.883 13.6942 25.9414 13.1692 25.653 12.8109C24.793 11.7392 24.793 9.92747 25.6547 8.85245Z" fill="#BABABA"/>
<path d="M20.6479 8.85249C22.0046 7.15909 22.0046 4.50739 20.6479 2.81399C20.3612 2.45398 19.8362 2.39562 19.4762 2.68398C19.1162 2.97235 19.0579 3.49736 19.3462 3.85565C20.2062 4.92732 20.2062 6.73908 19.3446 7.81411C17.9895 9.5075 17.9895 12.1592 19.3446 13.8526C19.5096 14.0593 19.7512 14.166 19.9962 14.166C20.1779 14.166 20.3612 14.106 20.5163 13.9826C20.8763 13.6942 20.9346 13.171 20.6463 12.8109C19.7879 11.7392 19.7879 9.92751 20.6479 8.85249Z" fill="#BABABA"/>
<path d="M15.6544 8.85415C17.0095 7.16076 17.0095 4.50905 15.6544 2.81565C15.3678 2.45565 14.8444 2.39564 14.4828 2.68565C14.1244 2.9723 14.0661 3.49731 14.3528 3.85568C15.2111 4.92734 15.2111 6.7391 14.3511 7.81413C12.9944 9.50753 12.9944 12.1592 14.3511 13.8526C14.5161 14.0593 14.7578 14.166 15.0028 14.166C15.1844 14.166 15.3694 14.106 15.5228 13.9844C15.8828 13.696 15.9412 13.171 15.6528 12.8127C14.7928 11.7392 14.7928 9.92918 15.6544 8.85415Z" fill="#BABABA"/>
</g>
<defs>
<clipPath id="clip0">
<rect width="40" height="40" fill="white"/>
</clipPath>
</defs>
</svg>
