<svg width="40" height="40" viewBox="0 0 40 40" fill="none" xmlns="http://www.w3.org/2000/svg">
<path d="M38.9687 12.588C37.598 11.2173 35.3677 11.2173 33.9965 12.5884C33.5748 13.0105 30.8822 15.7052 30.4709 16.117V6.83016C30.4709 5.89109 30.1052 5.00828 29.4411 4.3443L26.1266 1.02969C25.4627 0.365625 24.5798 0 23.6407 0H3.51773C1.57922 0 0.00210571 1.57711 0.00210571 3.51562V36.4844C0.00210571 38.4229 1.57922 40 3.51773 40H26.9552C28.8937 40 30.4709 38.4229 30.4709 36.4844V26.0649L38.9687 17.5599C40.3427 16.186 40.343 13.9621 38.9687 12.588ZM23.4397 2.34375C23.6611 2.34375 24.0877 2.30539 24.4694 2.68695L27.7839 6.00156C28.1558 6.37352 28.1272 6.78109 28.1272 7.03125H23.4397V2.34375ZM28.1271 36.4844C28.1271 37.1305 27.6015 37.6562 26.9552 37.6562H3.51773C2.87156 37.6562 2.34586 37.1305 2.34586 36.4844V3.51562C2.34586 2.86945 2.87156 2.34375 3.51773 2.34375H21.0959V8.20312C21.0959 8.85031 21.6205 9.375 22.2677 9.375H28.1271V18.4627C28.1271 18.4627 24.6698 21.923 24.6696 21.9231L23.0131 23.5797C22.8845 23.7083 22.7875 23.8652 22.73 24.0377L21.0727 29.0096C20.9323 29.4307 21.0419 29.895 21.3558 30.2088C21.6701 30.5231 22.1345 30.6322 22.555 30.492L27.5269 28.8347C27.6994 28.7772 27.8563 28.6802 27.9849 28.5516L28.1271 28.4094V36.4844ZM25.499 24.4084L27.1562 26.0656L26.5232 26.6987L24.0373 27.5273L24.8659 25.0413L25.499 24.4084ZM28.8132 24.408L27.1559 22.7507C28.0384 21.8675 31.9579 17.9447 32.7891 17.1127L34.4464 18.77L28.8132 24.408ZM37.3111 15.903L36.103 17.112L34.4458 15.4548L35.6542 14.2453C36.1114 13.7884 36.8547 13.7884 37.3116 14.2453C37.7684 14.7023 37.7708 15.4432 37.3111 15.903Z" fill="white"/>
<path d="M22.267 11.7188H5.86078C5.21359 11.7188 4.6889 12.2434 4.6889 12.8906C4.6889 13.5378 5.21359 14.0625 5.86078 14.0625H22.267C22.9142 14.0625 23.4389 13.5378 23.4389 12.8906C23.4389 12.2434 22.9142 11.7188 22.267 11.7188Z" fill="white"/>
<path d="M17.5795 16.4062H5.86078C5.21359 16.4062 4.6889 16.9309 4.6889 17.5781C4.6889 18.2253 5.21359 18.75 5.86078 18.75H17.5795C18.2267 18.75 18.7514 18.2253 18.7514 17.5781C18.7514 16.9309 18.2267 16.4062 17.5795 16.4062Z" fill="white"/>
<path d="M17.5795 21.0938H5.86078C5.21359 21.0938 4.6889 21.6184 4.6889 22.2656C4.6889 22.9128 5.21359 23.4375 5.86078 23.4375H17.5795C18.2267 23.4375 18.7514 22.9128 18.7514 22.2656C18.7514 21.6184 18.2267 21.0938 17.5795 21.0938Z" fill="white"/>
<path d="M17.5795 25.7812H5.86078C5.21359 25.7812 4.6889 26.3059 4.6889 26.9531C4.6889 27.6003 5.21359 28.125 5.86078 28.125H17.5795C18.2267 28.125 18.7514 27.6003 18.7514 26.9531C18.7514 26.3059 18.2267 25.7812 17.5795 25.7812Z" fill="white"/>
<path d="M22.267 32.9688H15.2358C14.5886 32.9688 14.0639 33.4934 14.0639 34.1406C14.0639 34.7878 14.5886 35.3125 15.2358 35.3125H22.267C22.9142 35.3125 23.4389 34.7878 23.4389 34.1406C23.4389 33.4934 22.9142 32.9688 22.267 32.9688Z" fill="white"/>
</svg>
