<svg width="40" height="40" viewBox="0 0 40 40" fill="none" xmlns="http://www.w3.org/2000/svg">
<path d="M20 0C8.972 0 0 8.97212 0 20.0001C0 31.0281 8.972 40 20 40C31.028 40 40 31.0281 40 20.0001C40 8.97212 31.028 0 20 0ZM20 36.3636C10.977 36.3636 3.63636 29.023 3.63636 20.0001C3.63636 10.9772 10.977 3.63636 20 3.63636C29.023 3.63636 36.3636 10.9772 36.3636 20.0001C36.3636 29.023 29.0229 36.3636 20 36.3636Z" fill="white"/>
<path d="M19.9998 8.48486C18.6633 8.48486 17.576 9.57286 17.576 10.9102C17.576 12.2463 18.6633 13.3333 19.9998 13.3333C21.3363 13.3333 22.4236 12.2463 22.4236 10.9102C22.4236 9.57286 21.3363 8.48486 19.9998 8.48486Z" fill="white"/>
<path d="M20 16.9697C18.9959 16.9697 18.1819 17.7838 18.1819 18.7879V29.697C18.1819 30.7011 18.9959 31.5152 20 31.5152C21.0042 31.5152 21.8182 30.7011 21.8182 29.697V18.7879C21.8182 17.7838 21.0042 16.9697 20 16.9697Z" fill="white"/>
</svg>
