<svg width="40" height="40" viewBox="0 0 40 40" fill="none" xmlns="http://www.w3.org/2000/svg">
<g clip-path="url(#clip0)">
<path d="M19.9997 8.26991C21.9432 8.26991 23.5187 6.6944 23.5187 4.75092C23.5187 2.80744 21.9432 1.23193 19.9997 1.23193C18.0562 1.23193 16.4807 2.80744 16.4807 4.75092C16.4807 6.6944 18.0562 8.26991 19.9997 8.26991Z" fill="white"/>
<path d="M25.711 6.04272C25.1195 8.65523 22.7888 10.616 20.0001 10.616C17.2113 10.616 14.8806 8.65523 14.2891 6.04272C12.1914 6.51015 10.6161 8.37913 10.6161 10.616V15.308C10.6161 16.6013 11.6688 17.6541 12.9621 17.6541C14.2554 17.6541 15.3081 16.6013 15.3081 15.308V12.962H24.6921V15.308C24.6921 16.6013 25.7448 17.6541 27.0381 17.6541C28.3314 17.6541 29.3841 16.6013 29.3841 15.308V10.616C29.3841 8.37913 27.8087 6.51015 25.711 6.04272Z" fill="white"/>
<path d="M38.181 29.9001C36.4978 28.9283 34.3457 29.5049 33.3739 31.1881C32.4022 32.8711 32.9788 35.0234 34.662 35.995C36.3451 36.9668 38.5756 36.3901 39.5472 34.707C40.519 33.0239 39.8641 30.8718 38.181 29.9001Z" fill="white"/>
<path d="M36.0341 21.8883L31.9709 19.5422C30.8508 18.8956 29.4128 19.2809 28.7662 20.401C28.1195 21.5211 28.5048 22.959 29.6249 23.6057L31.6566 24.7786L26.9646 32.9054L24.9329 31.7325C23.8128 31.0858 22.3748 31.4711 21.7282 32.5912C21.0816 33.7113 21.4669 35.1493 22.587 35.7959L26.6502 38.1419C28.5876 39.2604 30.9938 38.8305 32.4473 37.2476C30.4806 35.4291 29.9478 32.4303 31.3422 30.0151C32.7366 27.5998 35.6 26.5619 38.1583 27.3558C38.8024 25.3056 37.9715 23.0067 36.0341 21.8883Z" fill="white"/>
<path d="M6.62619 31.1883C5.6544 29.5051 3.50229 28.9285 1.81908 29.9004C0.136036 30.8721 -0.518965 33.0242 0.45291 34.7074C1.42455 36.3904 3.65502 36.9671 5.33807 35.9954C7.02127 35.0236 7.59791 32.8714 6.62619 31.1883Z" fill="white"/>
<path d="M18.2719 32.5914C17.6252 31.4713 16.1872 31.0861 15.0672 31.7327L13.0355 32.9056L8.34344 24.7788L10.3752 23.6059C11.4952 22.9592 11.8805 21.5212 11.2339 20.4012C10.5873 19.2811 9.14922 18.8959 8.02922 19.5424L3.96593 21.8885C2.02859 23.0069 1.19765 25.3058 1.84187 27.3561C4.40007 26.5621 7.26359 27.6001 8.65797 30.0153C10.0523 32.4306 9.51953 35.4293 7.55281 37.2478C9.00633 38.8307 11.4126 39.2606 13.3499 38.1422L17.4132 35.7961C18.5332 35.1495 18.9185 33.7114 18.2719 32.5914Z" fill="white"/>
</g>
<defs>
<clipPath id="clip0">
<rect width="40" height="40" fill="white"/>
</clipPath>
</defs>
</svg>
