<svg width="40" height="40" viewBox="0 0 40 40" fill="none" xmlns="http://www.w3.org/2000/svg">
<g clip-path="url(#clip0)">
<path d="M29.2986 7.60495V1.17188C29.2986 0.524689 28.7739 0 28.1268 0H3.9065C3.25931 0 2.73462 0.524689 2.73462 1.17188V15.2356C2.73462 15.8828 3.25931 16.4075 3.9065 16.4075H13.5758C13.4043 17.2198 13.3171 18.0505 13.3171 18.8913V21.7102L10.5343 27.3064C10.3536 27.6696 10.3736 28.1004 10.5874 28.4453C10.801 28.7902 11.1779 29 11.5836 29H13.3171V35.1181C13.3171 35.7653 13.8418 36.29 14.489 36.29H19.8748V38.8282C19.8748 39.4754 20.3995 40.0001 21.0467 40.0001H32.072C32.7192 40.0001 33.2439 39.4754 33.2439 38.8282V33.2071C33.2439 31.0861 33.9366 29.7972 34.8137 28.1655C35.9629 26.0274 37.2654 23.604 37.2654 18.8914C37.2654 13.8018 34.0318 9.28394 29.2986 7.60495ZM5.07838 14.0637V2.34376H26.9549V14.0637H22.6087C22.298 14.0637 21.9999 14.1872 21.7802 14.4069L19.9719 16.2149L18.1638 14.407C17.9441 14.1872 17.646 14.0637 17.3352 14.0637H5.07838ZM32.7493 27.0558C31.8402 28.7471 30.9002 30.4961 30.9002 33.207V37.6562H22.2186V35.118C22.2186 34.4708 21.6939 33.9461 21.0467 33.9461H15.6608V27.8281C15.6608 27.1809 15.1362 26.6562 14.489 26.6562H13.4751L15.5382 22.5073C15.6188 22.3452 15.6608 22.1666 15.6608 21.9855V18.8913C15.6608 18.0458 15.7694 17.2134 15.984 16.4075H16.8498L19.1431 18.7007C19.372 18.9296 19.6719 19.0439 19.9717 19.0439C20.2716 19.0439 20.5715 18.9294 20.8002 18.7007L23.0939 16.4074H28.1266C28.7738 16.4074 29.2985 15.8827 29.2985 15.2355V10.1313C32.6735 11.6765 34.9215 15.085 34.9215 18.8912C34.9216 23.0139 33.8172 25.0687 32.7493 27.0558Z" fill="white"/>
<path d="M3.90652 28.2031C3.25934 28.2031 2.73465 28.7278 2.73465 29.375V34.2188C2.73465 34.8659 3.25934 35.3906 3.90652 35.3906C4.55371 35.3906 5.0784 34.8659 5.0784 34.2188V29.375C5.0784 28.7278 4.55371 28.2031 3.90652 28.2031Z" fill="white"/>
<path d="M8.59448 29.7659C7.9473 29.7659 7.42261 30.2906 7.42261 30.9377V32.6562C7.42261 33.3034 7.9473 33.8281 8.59448 33.8281C9.24167 33.8281 9.76636 33.3034 9.76636 32.6562V30.9377C9.76636 30.2906 9.24167 29.7659 8.59448 29.7659Z" fill="white"/>
<path d="M10.7429 9.37573C11.3901 9.37573 11.9148 8.85107 11.9148 8.20386C11.9148 7.55665 11.3901 7.03198 10.7429 7.03198C10.0957 7.03198 9.57101 7.55665 9.57101 8.20386C9.57101 8.85107 10.0957 9.37573 10.7429 9.37573Z" fill="white"/>
<path d="M16.0163 9.37573C16.6635 9.37573 17.1882 8.85107 17.1882 8.20386C17.1882 7.55665 16.6635 7.03198 16.0163 7.03198C15.3691 7.03198 14.8445 7.55665 14.8445 8.20386C14.8445 8.85107 15.3691 9.37573 16.0163 9.37573Z" fill="white"/>
<path d="M21.2899 9.37573C21.9371 9.37573 22.4617 8.85107 22.4617 8.20386C22.4617 7.55665 21.9371 7.03198 21.2899 7.03198C20.6426 7.03198 20.118 7.55665 20.118 8.20386C20.118 8.85107 20.6426 9.37573 21.2899 9.37573Z" fill="white"/>
</g>
<defs>
<clipPath id="clip0">
<rect width="40" height="40" fill="white"/>
</clipPath>
</defs>
</svg>
