<svg width="254" height="99" viewBox="0 0 254 99" fill="none" xmlns="http://www.w3.org/2000/svg">
<path d="M50.8719 59.6493L51.9411 59.0306C52.5222 61.0264 54.2175 62.2671 56.8183 62.2671C59.4447 62.2671 60.9056 60.9598 60.9056 59.0528C60.9056 58.158 60.5589 57.4916 59.8846 57.0093C59.2103 56.527 58.1411 56.0669 56.7027 55.61L55.5404 55.2419L54.5194 54.8516C54.0763 54.6676 53.7295 54.5058 53.5208 54.3693C53.0777 54.0933 52.3585 53.5887 52.0791 53.1286C51.7998 52.6463 51.5462 51.98 51.5462 51.1772C51.5462 49.8699 52.0117 48.8355 52.9396 48.0549C53.8933 47.2521 55.0524 46.8618 56.4715 46.8618C59.0048 46.8618 60.8639 48.2389 61.6987 50.238L60.652 50.8123C59.8846 48.9529 58.4911 48.0327 56.4715 48.0327C54.24 48.0327 52.8016 49.3178 52.8016 51.1328C52.8016 52.0054 53.1034 52.6495 53.7295 53.0842C54.3556 53.5221 55.3542 53.9568 56.7733 54.4169C57.6788 54.7152 58.3755 54.969 58.8636 55.1753C59.3741 55.3815 59.9103 55.6576 60.4882 56.0257C61.673 56.7364 62.1611 57.7233 62.1611 59.0337C62.1611 60.3664 61.673 61.4453 60.6969 62.2481C59.7209 63.0508 58.4205 63.4411 56.8183 63.4411C53.8226 63.438 51.6168 61.9688 50.8719 59.6493Z" fill="white"/>
<path d="M72.5255 63.4361C70.1784 63.4361 68.2038 62.6334 66.5791 61.0246C64.9545 59.3936 64.1389 57.4422 64.1389 55.1481C64.1389 52.8508 64.9513 50.8993 66.5791 49.2937C68.207 47.6628 70.1816 46.86 72.5255 46.86C74.8726 46.86 76.8473 47.6628 78.4719 49.2937C80.0998 50.8993 80.9121 52.8539 80.9121 55.1481C80.9121 57.4454 80.0998 59.3968 78.4719 61.0246C76.8473 62.6334 74.8726 63.4361 72.5255 63.4361ZM72.5255 62.2653C74.5226 62.2653 76.2179 61.5767 77.589 60.1996C78.9824 58.8003 79.6792 57.1217 79.6792 55.1481C79.6792 53.1744 78.9824 51.499 77.589 50.1187C76.2179 48.7194 74.5226 48.0309 72.5255 48.0309C70.5284 48.0309 68.8331 48.7194 67.4364 50.1187C66.0654 51.4959 65.3687 53.1712 65.3687 55.1481C65.3687 57.1217 66.0654 58.7971 67.4364 60.1996C68.8299 61.5767 70.5252 62.2653 72.5255 62.2653Z" fill="white"/>
<path d="M89.5524 47.1107C91.0165 47.1107 92.2238 47.593 93.1774 48.5354C94.131 49.4778 94.619 50.6708 94.619 52.0956C94.619 53.5203 94.131 54.7133 93.1774 55.6558C92.2238 56.5982 91.0165 57.0551 89.5524 57.0551H85.2531V63.1855H84.0234V47.1138H89.5524V47.1107ZM89.5524 55.9064C90.6665 55.9064 91.572 55.5383 92.2944 54.8276C93.0169 54.1168 93.3861 53.1966 93.3861 52.0956C93.3861 50.9691 93.0136 50.0521 92.2944 49.3413C91.5752 48.6306 90.6698 48.2625 89.5524 48.2625H85.2531V55.9096H89.5524V55.9064Z" fill="white"/>
<path d="M107.928 63.1823L104.023 56.5918H98.8926V63.1823H97.6629V47.1107H104.075C105.398 47.1107 106.515 47.5708 107.465 48.51C108.419 49.4524 108.881 50.5534 108.881 51.8608C108.881 52.9396 108.531 53.9042 107.86 54.7546C107.186 55.605 106.351 56.1539 105.305 56.43L109.347 63.1791H107.928V63.1823ZM98.8926 48.2593V55.4463H104.075C105.073 55.4463 105.911 55.1005 106.608 54.4119C107.305 53.7011 107.655 52.8508 107.655 51.8639C107.655 50.8771 107.305 50.0267 106.608 49.3159C105.911 48.6052 105.073 48.2593 104.075 48.2593H98.8926Z" fill="white"/>
<path d="M122.842 63.1823L121.262 59.0954H113.107L111.527 63.1823H110.227L116.546 47.1107H117.846L124.142 63.1823H122.842ZM113.572 57.9499H120.822L117.197 48.6052L113.572 57.9499Z" fill="white"/>
<path d="M137.201 47.1107H138.43V63.1823H137.339L127.745 49.3604V63.1823H126.515V47.1107H127.584L137.204 60.9326V47.1107H137.201Z" fill="white"/>
<path d="M149.932 63.4361C147.584 63.4361 145.61 62.6334 143.985 61.0246C142.36 59.3936 141.545 57.4422 141.545 55.1481C141.545 52.8508 142.357 50.8993 143.985 49.2937C145.613 47.6628 147.588 46.86 149.932 46.86C152.279 46.86 154.253 47.6628 155.878 49.2937C157.506 50.8993 158.318 52.8539 158.318 55.1481C158.318 57.4454 157.506 59.3968 155.878 61.0246C154.25 62.6334 152.275 63.4361 149.932 63.4361ZM149.932 62.2653C151.929 62.2653 153.624 61.5767 154.995 60.1996C156.388 58.8003 157.085 57.1217 157.085 55.1481C157.085 53.1744 156.388 51.499 154.995 50.1187C153.624 48.7194 151.929 48.0309 149.932 48.0309C147.934 48.0309 146.239 48.7194 144.842 50.1187C143.471 51.4959 142.775 53.1712 142.775 55.1481C142.775 57.1217 143.471 58.7971 144.842 60.1996C146.236 61.5767 147.931 62.2653 149.932 62.2653Z" fill="white"/>
<path d="M162.894 61.0468C161.291 59.4381 160.501 57.4644 160.501 55.1449C160.501 52.8254 161.291 50.8517 162.894 49.2684C164.496 47.6628 166.518 46.8568 168.959 46.8568C170.445 46.8568 171.816 47.1995 173.046 47.9134C174.276 48.602 175.252 49.5444 175.926 50.7153L174.834 51.334C174.301 50.3472 173.486 49.5444 172.442 48.9479C171.396 48.3291 170.237 48.0308 168.959 48.0308C166.846 48.0308 165.125 48.7194 163.754 50.0965C162.405 51.4514 161.731 53.149 161.731 55.1481C161.731 57.1471 162.405 58.8447 163.754 60.2218C165.125 61.5767 166.843 62.2653 168.959 62.2653C171.492 62.2653 173.791 60.9326 174.883 58.8891L175.974 59.5079C174.651 61.894 171.954 63.433 168.959 63.433C166.515 63.4361 164.496 62.6334 162.894 61.0468Z" fill="white"/>
<path d="M189.585 63.1823L188.005 59.0954H179.85L178.27 63.1823H176.97L183.289 47.1107H184.589L190.885 63.1823H189.585ZM180.315 57.9499H187.565L183.94 48.6052L180.315 57.9499Z" fill="white"/>
<path d="M198.784 47.1107C200.248 47.1107 201.455 47.593 202.409 48.5354C203.362 49.4778 203.85 50.6708 203.85 52.0956C203.85 53.5203 203.362 54.7133 202.409 55.6558C201.455 56.5982 200.248 57.0551 198.784 57.0551H194.485V63.1855H193.255V47.1138H198.784V47.1107ZM198.784 55.9064C199.898 55.9064 200.807 55.5383 201.526 54.8276C202.245 54.1168 202.617 53.1966 202.617 52.0956C202.617 50.9691 202.245 50.0521 201.526 49.3413C200.807 48.6306 199.898 48.2625 198.784 48.2625H194.485V55.9096H198.784V55.9064Z" fill="white"/>
<path d="M206.891 51.3023H208.121V63.1823H206.891V51.3023Z" fill="white"/>
<path d="M222.155 47.1107V48.2593H217.044V63.1823H215.788V48.2593H210.677V47.1107H222.155Z" fill="white"/>
<path d="M234.491 63.1823L232.911 59.0954H224.756L223.176 63.1823H221.876L228.195 47.1107H229.495L235.792 63.1823H234.491ZM225.222 57.9499H232.472L228.847 48.6052L225.222 57.9499Z" fill="white"/>
<path d="M239.391 62.0336H247.058V63.1823H238.161V47.1107H239.391V62.0336Z" fill="white"/>
<path d="M23.1788 43.7472C14.9334 43.7472 8.24854 50.3536 8.24854 58.502V88.0116C16.4939 88.0116 23.1788 81.4053 23.1788 73.2568V43.7472Z" fill="url(#paint0_linear)"/>
<path d="M208.994 42.9539C207.835 42.9539 206.894 43.8837 206.894 45.0291V49.1827C208.053 49.1827 208.994 48.253 208.994 47.1075V42.9539Z" fill="url(#paint1_linear)"/>
<path d="M25.5259 11.8578V73.3774C33.9061 73.3774 40.6969 66.6663 40.6969 58.3846V26.8506C40.6969 18.572 33.9029 11.8578 25.5259 11.8578Z" fill="url(#paint2_linear)"/>
<path d="M25.5259 15.6972V73.3774C33.9061 73.3774 40.6969 66.6663 40.6969 58.3846V30.69C40.6969 22.4083 33.9029 15.6972 25.5259 15.6972Z" fill="url(#paint3_linear)"/>
<path d="M25.5259 19.7112V73.3774C33.9061 73.3774 40.6969 66.6664 40.6969 58.3846V34.7039C40.6969 26.4254 33.9029 19.7112 25.5259 19.7112Z" fill="url(#paint4_linear)"/>
<defs>
<linearGradient id="paint0_linear" x1="15.7127" y1="88.0122" x2="15.7127" y2="43.7477" gradientUnits="userSpaceOnUse">
<stop stop-color="#88CDD6"/>
<stop offset="1" stop-color="#42A6DE"/>
</linearGradient>
<linearGradient id="paint1_linear" x1="207.942" y1="49.1839" x2="207.942" y2="42.9546" gradientUnits="userSpaceOnUse">
<stop stop-color="#88CDD6"/>
<stop offset="1" stop-color="#42A6DE"/>
</linearGradient>
<linearGradient id="paint2_linear" x1="33.1112" y1="73.3763" x2="33.1112" y2="11.8583" gradientUnits="userSpaceOnUse">
<stop stop-color="#88CDD6"/>
<stop offset="1" stop-color="#45A7DE"/>
</linearGradient>
<linearGradient id="paint3_linear" x1="33.1112" y1="73.3763" x2="33.1112" y2="15.6957" gradientUnits="userSpaceOnUse">
<stop stop-color="#88CDD6"/>
<stop offset="0.227" stop-color="#81C9D7"/>
<stop offset="0.5154" stop-color="#6CBCD8"/>
<stop offset="0.8357" stop-color="#46A8D9"/>
<stop offset="1" stop-color="#259BD7"/>
</linearGradient>
<linearGradient id="paint4_linear" x1="33.1112" y1="73.3763" x2="33.1112" y2="19.7117" gradientUnits="userSpaceOnUse">
<stop stop-color="#88CDD6"/>
<stop offset="0.2287" stop-color="#81C9D7"/>
<stop offset="0.5194" stop-color="#6CBDD8"/>
<stop offset="0.8422" stop-color="#45A9DA"/>
<stop offset="1" stop-color="#249DD9"/>
</linearGradient>
</defs>
</svg>
